<?xml version="1.0" encoding="UTF-8" standalone="no"?>
<!-- Created with Inkscape (http://www.inkscape.org/) -->

<svg
   version="1.1"
   id="svg1"
   width="3840"
   height="3840"
   viewBox="0 0 3840 3840"
   sodipodi:docname="logo_maskable.svg"
   inkscape:version="1.3.2 (091e20ef0f, 2023-11-25)"
   inkscape:export-filename="192x192.png"
   inkscape:export-xdpi="4.8000002"
   inkscape:export-ydpi="4.8000002"
   xmlns:inkscape="http://www.inkscape.org/namespaces/inkscape"
   xmlns:sodipodi="http://sodipodi.sourceforge.net/DTD/sodipodi-0.dtd"
   xmlns="http://www.w3.org/2000/svg"
   xmlns:svg="http://www.w3.org/2000/svg">
  <defs
     id="defs1" />
  <sodipodi:namedview
     id="namedview1"
     pagecolor="#ffffff"
     bordercolor="#000000"
     borderopacity="0.25"
     inkscape:showpageshadow="2"
     inkscape:pageopacity="0.0"
     inkscape:pagecheckerboard="0"
     inkscape:deskcolor="#d1d1d1"
     inkscape:zoom="0.1765625"
     inkscape:cx="1823.7168"
     inkscape:cy="2106.9027"
     inkscape:window-width="1918"
     inkscape:window-height="1042"
     inkscape:window-x="0"
     inkscape:window-y="18"
     inkscape:window-maximized="1"
     inkscape:current-layer="g1" />
  <g
     inkscape:groupmode="layer"
     inkscape:label="Image"
     id="g1">
    <rect
       style="fill:#ffffff;fill-opacity:1;stroke-width:3.63307"
       id="rect1"
       width="3840"
       height="3840"
       x="0"
       y="0" />
    <path
       style="fill:#000000;stroke-width:1.02863"
       d="m 1363.8022,2264.9834 c -86.1571,-7.6794 -152.6181,-48.4599 -183.4035,-112.5369 -8.2,-17.0675 -13.2058,-33.9177 -17.1124,-57.6036 -2.6403,-16.0084 -2.6722,-60.8318 -0.054,-77.2327 5.8964,-36.9477 18.5219,-64.4625 41.5311,-90.5084 24.6342,-27.8855 70.0929,-52.275 122.2266,-65.5772 35.37,-9.0247 61.8483,-13.3523 123.9507,-20.258 74.6113,-8.2966 94.5655,-11.334 110.8526,-16.8735 17.5967,-5.9851 26.8546,-12.8672 32.3538,-24.0514 l 3.3744,-6.8631 -0.06,-18.0143 c -0.066,-19.9399 -1.6243,-28.8321 -7.7231,-44.0632 -6.0777,-15.178 -18.7137,-30.927 -32.3313,-40.2961 -22.1726,-15.2553 -55.5663,-22.309 -92.7565,-19.5933 -41.4632,3.028 -68.4841,13.9622 -94.3894,38.1952 -12.4259,11.6239 -25.4966,30.2071 -30.5059,43.3714 -1.7548,4.6114 -2.7292,5.9172 -4.4222,5.9264 -4.1197,0.023 -150.2973,-20.8813 -151.1229,-21.6108 -1.2316,-1.0887 6.8454,-24.3973 13.5625,-39.1391 44.6017,-97.8861 146.0263,-153.1983 280.9406,-153.2117 94.8696,-0.01 177.8982,28.6565 225.2988,77.7852 26.5302,27.4973 43.7312,59.1241 51.8541,95.3414 6.6127,29.4842 6.1267,8.2219 6.4769,283.3244 l 0.3183,250.2159 h -78.7025 -78.7026 l -0.2675,-47.5745 -0.2675,-47.5744 -2.2977,-0.3265 c -1.8013,-0.2561 -2.9127,0.7197 -5.1432,4.5158 -10.5408,17.939 -19.9318,30.1122 -34.355,44.5336 -34.5053,34.5009 -82.0285,54.8957 -139.2441,59.7569 -14.2177,1.208 -46.0236,1.1774 -59.8789,-0.058 z m 103.3107,-121.8494 c 34.3317,-4.6689 64.3015,-18.818 88.0376,-41.5632 25.2694,-24.2146 39.0859,-51.9117 42.8673,-85.933 1.1871,-10.6792 1.432,-95.4957 0.2744,-94.97 -0.4243,0.1925 -3.5608,1.8056 -6.97,3.5843 -17.1424,8.9444 -51.6771,16.3895 -123.4097,26.605 -36.8656,5.25 -48.141,7.3864 -65.3929,12.3901 -27.8293,8.0715 -43.6938,16.6061 -59.1456,31.8178 -11.9442,11.7589 -16.3191,18.7507 -20.5962,32.9165 -2.5055,8.2985 -2.8012,10.9096 -2.8531,25.2015 -0.069,18.7648 1.3059,25.48 8.1032,39.6025 19.0197,39.516 73.5606,59.2596 139.085,50.3485 z m 1120.985,121.8801 c -107.3645,-6.3526 -193.7108,-54.0875 -248.3509,-137.2961 -34.198,-52.0784 -52.9768,-110.6258 -58.6797,-182.9483 -2.2607,-28.6684 -1.1001,-74.4133 2.6326,-103.7745 15.1403,-119.0883 75.678,-211.9155 169.5926,-260.0498 34.6741,-17.7717 70.0889,-28.2013 113.7184,-33.4898 18.7157,-2.2686 70.3239,-2.5927 88.9771,-0.5588 57.7429,6.2961 104.4759,22.2319 146.5807,49.9833 82.7597,54.5469 133.0798,145.697 144.011,260.862 3.1388,33.0678 2.2927,79.6723 -2.0634,113.6674 -17.9399,140 -99.3488,242.3873 -222.3641,279.6649 -38.6813,11.7218 -86.8629,16.732 -134.0543,13.9397 z m 56.5751,-133.7118 c 36.3453,-6.0502 65.9296,-24.8928 90.9177,-57.9067 59.5012,-78.612 61.9925,-244.6796 4.9482,-329.8322 -19.4873,-29.0894 -44.6118,-49.5739 -73.0422,-59.5524 -17.8305,-6.2582 -27.5969,-7.7109 -52.14,-7.7552 -23.7639,-0.043 -31.8105,0.9751 -49.2731,6.234 -38.661,11.6426 -71.0525,41.8917 -92.138,86.0438 -14.2868,29.916 -23.0485,65.5642 -26.3501,107.2096 -1.5121,19.0742 -0.6804,58.7657 1.6058,76.6335 9.6494,75.4148 38.6498,130.1735 84.6815,159.8957 29.1446,18.8184 69.9531,25.8278 110.7902,19.0299 z M 903.70527,1903.002 v -348.7078 h 82.29092 82.29091 v 348.7078 348.708 h -82.29091 -82.29092 z m 982.34803,0 v -348.7078 h 79.7194 79.7193 v 58.1832 58.1831 l 3.217,-0.3223 c 3.1111,-0.3117 3.4094,-0.7984 9.0476,-14.7626 9.9169,-24.562 20.2687,-40.9547 36.5591,-57.894 33.9603,-35.3134 79.2936,-53.732 132.0683,-53.6586 13.3089,0.019 37.7227,1.6181 49.2655,3.2277 l 8.4863,1.1835 v 75.781 75.781 l -7.4151,-1.8831 c -11.0572,-2.808 -33.1376,-5.7932 -52.0639,-7.0388 -53.4924,-3.5209 -96.4734,10.6668 -129.7708,42.8362 -24.3213,23.4975 -38.5999,51.6464 -43.1545,85.075 -0.7463,5.4786 -1.0963,75.8098 -1.0963,220.3854 V 2251.71 h -82.291 -82.2909 z M 976.73849,1454.4333 c -19.89603,-1.6531 -35.6921,-7.7923 -51.36055,-19.9615 -20.80834,-16.1614 -32.26306,-37.6823 -33.67875,-63.2749 -1.39939,-25.2981 6.18589,-46.2435 23.19759,-64.056 9.43408,-9.8782 17.41453,-15.7316 28.99901,-21.2698 14.71884,-7.0366 22.44084,-8.6143 42.61476,-8.7064 15.15355,-0.068 18.63095,0.2326 26.06225,2.2607 32.6775,8.9185 58.1713,33.422 66.6466,64.0578 2.5993,9.3956 2.6543,34.799 0.096,44.1719 -4.1617,15.2451 -13.1353,29.9734 -25.0568,41.1254 -21.0162,19.6596 -46.8319,28.2024 -77.51982,25.6528 z"
       id="path1" />
  </g>
</svg>
