<?xml version="1.0" encoding="UTF-8" standalone="no"?>
<!-- Created with Inkscape (http://www.inkscape.org/) -->

<svg
   version="1.1"
   id="svg1"
   width="3840"
   height="3840"
   viewBox="0 0 3840 3840"
   sodipodi:docname="logo.svg"
   inkscape:version="1.3.2 (091e20ef0f, 2023-11-25)"
   inkscape:export-filename="192x192.png"
   inkscape:export-xdpi="4.8000002"
   inkscape:export-ydpi="4.8000002"
   xmlns:inkscape="http://www.inkscape.org/namespaces/inkscape"
   xmlns:sodipodi="http://sodipodi.sourceforge.net/DTD/sodipodi-0.dtd"
   xmlns="http://www.w3.org/2000/svg"
   xmlns:svg="http://www.w3.org/2000/svg">
  <defs
     id="defs1" />
  <sodipodi:namedview
     id="namedview1"
     pagecolor="#ffffff"
     bordercolor="#000000"
     borderopacity="0.25"
     inkscape:showpageshadow="2"
     inkscape:pageopacity="0.0"
     inkscape:pagecheckerboard="0"
     inkscape:deskcolor="#d1d1d1"
     inkscape:zoom="0.1765625"
     inkscape:cx="1823.7168"
     inkscape:cy="2106.9027"
     inkscape:window-width="1918"
     inkscape:window-height="1042"
     inkscape:window-x="0"
     inkscape:window-y="18"
     inkscape:window-maximized="1"
     inkscape:current-layer="g1" />
  <g
     inkscape:groupmode="layer"
     inkscape:label="Image"
     id="g1">
    <rect
       style="fill:#ffffff;fill-opacity:1;stroke-width:3.63307"
       id="rect1"
       width="3840"
       height="3840"
       x="0"
       y="0" />
    <path
       style="fill:#000000;stroke-width:1.33752"
       d="m 1196.7833,2561.615 c -112.029,-9.9854 -198.44738,-63.0118 -238.47718,-146.3302 -10.6624,-22.1927 -17.1713,-44.1028 -22.2511,-74.9013 -3.4331,-20.8155 -3.4746,-79.0987 -0.07,-100.4246 7.667,-48.0426 24.0838,-83.8198 54.0024,-117.6869 32.03148,-36.2592 91.14088,-67.9725 158.92968,-85.2692 45.9912,-11.7347 80.4206,-17.3618 161.1715,-26.3412 97.0161,-10.7879 122.9623,-14.7374 144.1402,-21.9404 22.8808,-7.7823 34.9187,-16.731 42.0692,-31.2737 l 4.3877,-8.924 -0.078,-23.4237 c -0.086,-25.9276 -2.1121,-37.49 -10.0423,-57.2949 -7.9027,-19.7357 -24.3332,-40.2139 -42.0399,-52.3965 -28.8308,-19.8362 -72.2521,-29.0081 -120.6101,-25.4768 -53.914,3.9372 -89.049,18.1548 -122.7333,49.6647 -16.1572,15.1143 -33.1529,39.2779 -39.6664,56.3952 -2.2818,5.9962 -3.5487,7.6941 -5.7502,7.7061 -5.3568,0.03 -195.42968,-27.1517 -196.50318,-28.1003 -1.6014,-1.4156 8.901,-31.7235 17.6352,-50.8921 57.99498,-127.28 189.87608,-199.2017 365.30348,-199.2191 123.3577,-0.013 231.3187,37.2617 292.9531,101.143 34.4968,35.7544 56.863,76.8783 67.4252,123.9712 8.5984,38.338 7.9664,10.6909 8.4218,368.403 l 0.4139,325.3525 h -102.3359 -102.336 l -0.3477,-61.8605 -0.3479,-61.8604 -2.9877,-0.4245 c -2.3422,-0.333 -3.7873,0.9358 -6.6876,5.8718 -13.7061,23.3259 -25.917,39.1545 -44.6713,57.9065 -44.8669,44.8611 -106.6606,71.3801 -181.0574,77.7011 -18.487,1.5708 -59.8438,1.531 -77.8597,-0.075 z m 134.3336,-158.4391 c 44.641,-6.071 83.6104,-24.4688 114.4741,-54.0442 32.8575,-31.4859 50.8229,-67.5 55.7398,-111.7375 1.5435,-13.886 1.862,-124.1718 0.3568,-123.4882 -0.5518,0.2503 -4.6301,2.3477 -9.063,4.6606 -22.2901,11.6303 -67.1951,21.311 -160.4681,34.5941 -47.9358,6.8265 -62.597,9.6044 -85.0295,16.1107 -36.186,10.4953 -56.8145,21.5927 -76.9062,41.3723 -15.5309,15.2899 -21.2195,24.3812 -26.781,42.8008 -3.2579,10.7905 -3.6423,14.1857 -3.7099,32.7693 -0.089,24.3995 1.6981,33.1313 10.5366,51.4946 24.731,51.3821 95.6498,77.0545 180.8504,65.4675 z M 2788.719,2561.655 c -139.6047,-8.2603 -251.8796,-70.3293 -322.9275,-178.5244 -44.4671,-67.7168 -68.885,-143.8452 -76.3004,-237.8853 -2.9395,-37.2771 -1.4305,-96.7586 3.4232,-134.9366 19.6867,-154.849 98.403,-275.5509 220.519,-338.1393 45.0863,-23.1083 91.1357,-36.6698 147.8665,-43.5464 24.3358,-2.9498 91.4413,-3.3713 115.6958,-0.7266 75.0823,8.1868 135.8486,28.9079 190.597,64.9927 107.6113,70.9266 173.0419,189.4478 187.2556,339.1954 4.0813,42.9976 2.9812,103.5969 -2.683,147.8002 -23.327,182.0402 -129.182,315.173 -289.1371,363.6447 -50.2968,15.2416 -112.9467,21.7563 -174.3091,18.1256 z m 73.5638,-173.8638 c 47.2593,-7.8669 85.7274,-32.3678 118.2191,-75.2953 77.3687,-102.2181 80.6081,-318.1537 6.4341,-428.8765 -25.3391,-37.8246 -58.0081,-64.4603 -94.9758,-77.4352 -23.1847,-8.1375 -35.8839,-10.0264 -67.7969,-10.084 -30.8999,-0.056 -41.3628,1.2679 -64.0692,8.106 -50.2704,15.1387 -92.3887,54.4712 -119.8059,111.8817 -18.5769,38.8993 -29.9696,85.2522 -34.2626,139.4032 -1.9662,24.8019 -0.8848,76.4122 2.088,99.6455 12.5469,98.0609 50.2558,169.2629 110.1102,207.9103 37.8964,24.4693 90.9591,33.5835 144.059,24.7443 z M 598.52523,2090.9354 v -453.4203 h 107.00181 107.00183 v 453.4203 453.4204 H 705.52704 598.52523 Z m 1277.33437,0 v -453.4203 h 103.658 103.658 v 75.6549 75.6547 l 4.1831,-0.419 c 4.0453,-0.4054 4.4331,-1.0382 11.7644,-19.1957 12.8949,-31.9376 26.3552,-53.2528 47.5373,-75.2788 44.1582,-45.9175 103.1045,-69.867 171.7267,-69.7715 17.3054,0.024 49.0504,2.104 64.0593,4.1969 l 11.0346,1.5389 v 98.537 98.537 l -9.6417,-2.4485 c -14.3775,-3.6512 -43.0884,-7.5328 -67.698,-9.1525 -69.5555,-4.5782 -125.4431,13.8699 -168.7393,55.6994 -31.6247,30.5535 -50.191,67.1551 -56.1132,110.6219 -0.9705,7.1237 -1.4256,98.5745 -1.4256,286.5643 v 276.1017 H 1982.8614 1875.8596 Z M 693.48938,1507.6673 c -25.87055,-2.1495 -46.40998,-10.1322 -66.78346,-25.9557 -27.05681,-21.0144 -41.95123,-48.9978 -43.79203,-82.2755 -1.81961,-32.8948 8.04342,-60.1298 30.16352,-83.2911 12.26701,-12.8445 22.64388,-20.4556 37.70703,-27.6569 19.13871,-9.1496 29.17953,-11.201 55.41142,-11.3208 19.70393,-0.089 24.22562,0.3024 33.88836,2.9396 42.49022,11.5966 75.63947,43.4582 86.65972,83.2935 3.37986,12.2169 3.4514,45.2486 0.12444,57.4361 -5.41142,19.823 -17.07966,38.974 -32.58098,53.4748 -27.32712,25.5632 -60.89487,36.6712 -100.79802,33.356 z"
       id="path1" />
  </g>
</svg>
