<?xml version="1.0" encoding="UTF-8" standalone="no"?>
<!-- Created with Inkscape (http://www.inkscape.org/) -->

<svg
   version="1.1"
   id="svg1"
   width="837"
   height="248"
   viewBox="0 0 837 248"
   sodipodi:docname="logo_app.svg"
   inkscape:version="1.3.2 (091e20ef0f, 2023-11-25)"
   inkscape:export-filename="logo_small_white.png"
   inkscape:export-xdpi="96"
   inkscape:export-ydpi="96"
   xmlns:inkscape="http://www.inkscape.org/namespaces/inkscape"
   xmlns:sodipodi="http://sodipodi.sourceforge.net/DTD/sodipodi-0.dtd"
   xmlns="http://www.w3.org/2000/svg"
   xmlns:svg="http://www.w3.org/2000/svg">
  <defs
     id="defs1" />
  <sodipodi:namedview
     id="namedview1"
     pagecolor="#ffffff"
     bordercolor="#000000"
     borderopacity="0.25"
     inkscape:showpageshadow="2"
     inkscape:pageopacity="0.0"
     inkscape:pagecheckerboard="0"
     inkscape:deskcolor="#d1d1d1"
     inkscape:zoom="1.2485066"
     inkscape:cx="417.69904"
     inkscape:cy="120.9445"
     inkscape:window-width="1918"
     inkscape:window-height="1042"
     inkscape:window-x="0"
     inkscape:window-y="18"
     inkscape:window-maximized="1"
     inkscape:current-layer="g1" />
  <g
     inkscape:groupmode="layer"
     inkscape:label="Image"
     id="g1">
    <path
       style="fill:#ffffff;fill-opacity:1"
       d="M 137.14302,147.48983 V 69.489835 h 15.5 15.5 v 9.61395 9.613949 l 3.91594,-5.863949 c 6.50357,-9.73882 14.35895,-14.29876 26.00216,-15.09391 12.7181,-0.86855 26.05213,3.91218 34.03818,12.20391 4.39226,4.56037 9.86595,14.236299 12.17733,21.526045 2.92758,9.23316 3.68715,30.43399 1.50474,42 -5.03215,26.66862 -24.3968,42.84236 -48.63816,40.62353 -11.75262,-1.07573 -20.46647,-6.81542 -27.69138,-18.23994 -0.9373,-1.48211 -1.20373,4.67064 -1.25,28.86641 l -0.0588,30.75 h -15.5 -15.5 z m 60.5,10.89457 c 5.86814,-1.60534 12.59498,-8.95079 15.04525,-16.42883 2.8747,-8.77335 2.67718,-25.84502 -0.38901,-33.62243 -3.67978,-9.333766 -12.39351,-15.818846 -21.28051,-15.837736 -4.33875,-0.009 -11.16741,2.8848 -14.55553,6.1687 -11.86525,11.500246 -11.7796,42.418956 0.15054,54.349096 5.78251,5.78251 12.88996,7.59786 21.02926,5.3712 z m 71.5,-10.89457 V 69.489835 h 15.5 15.5 v 9.61395 9.613949 l 3.91594,-5.863949 c 6.50357,-9.73882 14.35895,-14.29876 26.00216,-15.09391 12.7181,-0.86855 26.05213,3.91218 34.03818,12.20391 4.39226,4.56037 9.86595,14.236299 12.17733,21.526045 2.92758,9.23316 3.68715,30.43399 1.50474,42 -5.03215,26.66862 -24.3968,42.84236 -48.63816,40.62353 -11.75262,-1.07573 -20.46647,-6.81542 -27.69138,-18.23994 -0.9373,-1.48211 -1.20373,4.67064 -1.25,28.86641 l -0.0588,30.75 h -15.5 -15.5 z m 60.5,10.89457 c 5.86814,-1.60534 12.59498,-8.95079 15.04525,-16.42883 2.8747,-8.77335 2.67718,-25.84502 -0.38901,-33.62243 -3.67978,-9.333766 -12.39351,-15.818846 -21.28051,-15.837736 -4.33875,-0.009 -11.16741,2.8848 -14.55553,6.1687 -11.86525,11.500246 -11.7796,42.418956 0.15054,54.349096 5.78251,5.78251 12.88996,7.59786 21.02926,5.3712 z M 35.888948,183.45724 c -10.37107,-2.59091 -18.478629,-9.02096 -22.647188,-17.96132 -3.5448978,-7.60279 -3.6697738,-21.01984 -0.265315,-28.50609 5.961932,-13.11001 15.953443,-18.08468 43.269662,-21.5435 18.434962,-2.33426 22.526212,-3.63131 23.48336,-7.44489 3.049848,-12.151546 -9.425842,-20.636085 -23.946421,-16.285616 -4.440136,1.3303 -11.640021,7.77056 -11.640021,10.411936 0,1.43317 -0.968848,1.55535 -7.75,0.97735 -4.2625,-0.36333 -11.022827,-0.9384 -15.02295,-1.27795 -8.250681,-0.70035 -8.082896,-0.25429 -3.745456,-9.957346 4.376722,-9.790929 13.159044,-17.185529 25.518406,-21.486169 9.482047,-3.29944 30.356196,-3.37784 40.62004,-0.15257 8.59392,2.70052 18.143585,8.86245 21.687265,13.99372 6.33077,9.167009 6.16414,7.756809 6.50078,55.015035 l 0.30809,43.25 H 97.201113 82.143025 v -7.69962 -7.69961 l -4.930451,5.53184 c -7.287606,8.17651 -14.520433,11.19985 -27.569549,11.52413 -5.5,0.13668 -11.689335,-0.17352 -13.754077,-0.68933 z m 33.374446,-23.76163 c 7.933351,-4.14443 10.932633,-9.50781 11.637812,-20.81098 0.516695,-8.28199 0.447818,-8.68606 -1.356928,-7.96045 -1.045689,0.42042 -5.501253,1.42349 -9.901253,2.22904 -21.224269,3.88575 -25.50777,5.71762 -28.14857,12.03795 -1.732773,4.1471 -0.948663,9.28048 1.881607,12.31842 5.356636,5.74967 17.158087,6.74623 25.887332,2.18602 z M 411.64302,182.8282 c -4.76848,-2.51388 -7.32649,-5.31718 -9.10759,-9.98092 -4.4397,-11.62518 3.86993,-23.35745 16.5434,-23.35745 5.97269,0 9.78994,1.69692 13.35914,5.93868 5.44172,6.46712 5.82454,14.10805 1.07167,21.38982 -4.3908,6.72705 -14.98373,9.63843 -21.86662,6.00987 z m 127.24592,0.62904 c -10.37107,-2.59091 -18.47863,-9.02096 -22.64719,-17.96132 -3.54489,-7.60279 -3.66977,-21.01984 -0.26531,-28.50609 5.96193,-13.11001 15.95344,-18.08468 43.26966,-21.5435 18.43496,-2.33426 22.52621,-3.63131 23.48336,-7.44489 3.04985,-12.151546 -9.42584,-20.636085 -23.94642,-16.285616 -4.44013,1.3303 -11.64002,7.77056 -11.64002,10.411936 0,1.43317 -0.96885,1.55535 -7.75,0.97735 -4.2625,-0.36333 -11.02283,-0.9384 -15.02295,-1.27795 -8.25068,-0.70035 -8.0829,-0.25429 -3.74546,-9.957346 4.37673,-9.790929 13.15905,-17.185529 25.51841,-21.486169 9.48205,-3.29944 30.3562,-3.37784 40.62004,-0.15257 8.59392,2.70052 18.14359,8.86245 21.68727,13.99372 6.33077,9.167009 6.16414,7.756809 6.50078,55.015035 l 0.30809,43.25 h -15.05809 -15.05809 v -7.69962 -7.69961 l -4.93045,5.53184 c -7.28761,8.17651 -14.52043,11.19985 -27.56955,11.52413 -5.5,0.13668 -11.68933,-0.17352 -13.75408,-0.68933 z m 33.37445,-23.76163 c 7.93335,-4.14443 10.93263,-9.50781 11.63781,-20.81098 0.5167,-8.28199 0.44782,-8.68606 -1.35693,-7.96045 -1.04569,0.42042 -5.50125,1.42349 -9.90125,2.22904 -21.22427,3.88575 -25.50777,5.71762 -28.14857,12.03795 -1.73277,4.1471 -0.94866,9.28048 1.88161,12.31842 5.35663,5.74967 17.15808,6.74623 25.88733,2.18602 z m 182.51371,23.20776 c -23.98385,-5.80523 -39.55667,-27.8478 -39.61672,-56.07557 -0.0653,-30.698956 15.55394,-52.243725 41.98264,-57.909725 13.34168,-2.86029 28.32777,-1.31816 39.83246,4.09894 13.67658,6.43974 24.3938,20.270469 28.26223,36.472815 1.86316,7.80359 1.61819,27.01363 -0.44476,34.87565 -5.16641,19.68954 -20.77112,35.1242 -39.44915,39.01927 -7.21289,1.50415 -23.41801,1.24895 -30.5667,-0.48138 z m 22.4667,-23.55164 c 5.77007,-1.9319 9.64274,-5.5924 12.81918,-12.11686 10.86689,-22.32077 2.05758,-52.925886 -15.93031,-55.344696 -10.49088,-1.41069 -19.5812,4.67949 -24.03067,16.099656 -1.98704,5.10003 -2.33769,7.79994 -2.33769,18 0,10.17326 0.35168,12.89523 2.31016,17.88083 5.07812,12.92711 16.07772,19.19468 27.16933,15.48107 z M 463.14302,125.98983 V 69.489835 h 15.5 15.5 v 56.499995 56.5 h -15.5 -15.5 z m 177,0 V 69.489835 h 14.96379 14.96379 l 0.28621,9.75 0.28621,9.749999 2.09184,-4.499999 c 4.86316,-10.46173 12.58377,-15.99341 23.4025,-16.76749 3.76458,-0.26935 8.00591,-0.19828 9.42517,0.15793 l 2.58049,0.64766 v 14 13.999999 l -2.75,-0.71652 c -1.5125,-0.39409 -5.9,-0.72301 -9.75,-0.73093 -5.82567,-0.012 -7.87378,0.4634 -12.20847,2.83379 -5.53435,3.026406 -9.71222,8.068836 -11.3146,13.655996 -0.54934,1.91544 -0.97693,18.18117 -0.97693,37.16296 v 33.7566 h -15.5 -15.5 z M 470.10304,52.187095 c -4.75603,-2.51505 -8.96002,-8.941732 -8.96002,-13.697265 0,-4.755533 4.20399,-11.182212 8.96002,-13.697261 7.7978,-4.123574 15.93843,-2.599239 21.8056,4.083102 2.86814,3.266624 3.23438,4.355277 3.23438,9.614159 0,5.258885 -0.36624,6.347535 -3.23438,9.614155 -5.86717,6.68235 -14.0078,8.20668 -21.8056,4.08311 z"
       id="path1" />
  </g>
</svg>
